# レベルの形。描画 (drawModel)、当たり判定 (addMeshFile)、ナビメッシュ (ビルドの時に mitiru_navbake が焼く) が同じこのファイルを読む
mtllib level.mtl
vn 0 1 0
vn 0 -1 0
vn 1 0 0
vn -1 0 0
vn 0 0 1
vn 0 0 -1
o floor0
usemtl floor
v -10 -0.2 -10
v 10 -0.2 -10
v 10 -0.2 10
v -10 -0.2 10
v -10 0 -10
v 10 0 -10
v 10 0 10
v -10 0 10
f 5//1 8//1 7//1
f 5//1 7//1 6//1
f 1//2 2//2 3//2
f 1//2 3//2 4//2
f 2//3 6//3 7//3
f 2//3 7//3 3//3
f 1//4 4//4 8//4
f 1//4 8//4 5//4
f 4//5 3//5 7//5
f 4//5 7//5 8//5
f 1//6 5//6 6//6
f 1//6 6//6 2//6
o wall1
usemtl wall
v -6 0 0.6
v 2 0 0.6
v 2 0 1.2
v -6 0 1.2
v -6 2.4 0.6
v 2 2.4 0.6
v 2 2.4 1.2
v -6 2.4 1.2
f 13//1 16//1 15//1
f 13//1 15//1 14//1
f 9//2 10//2 11//2
f 9//2 11//2 12//2
f 10//3 14//3 15//3
f 10//3 15//3 11//3
f 9//4 12//4 16//4
f 9//4 16//4 13//4
f 12//5 11//5 15//5
f 12//5 15//5 16//5
f 9//6 13//6 14//6
f 9//6 14//6 10//6
o wall2
usemtl wall
v -10 0 9.4
v 10 0 9.4
v 10 0 10
v -10 0 10
v -10 1.2 9.4
v 10 1.2 9.4
v 10 1.2 10
v -10 1.2 10
f 21//1 24//1 23//1
f 21//1 23//1 22//1
f 17//2 18//2 19//2
f 17//2 19//2 20//2
f 18//3 22//3 23//3
f 18//3 23//3 19//3
f 17//4 20//4 24//4
f 17//4 24//4 21//4
f 20//5 19//5 23//5
f 20//5 23//5 24//5
f 17//6 21//6 22//6
f 17//6 22//6 18//6
o pillar3
usemtl pillar
v 4 0 -4.2
v 5.2 0 -4.2
v 5.2 0 -3
v 4 0 -3
v 4 2.4 -4.2
v 5.2 2.4 -4.2
v 5.2 2.4 -3
v 4 2.4 -3
f 29//1 32//1 31//1
f 29//1 31//1 30//1
f 25//2 26//2 27//2
f 25//2 27//2 28//2
f 26//3 30//3 31//3
f 26//3 31//3 27//3
f 25//4 28//4 32//4
f 25//4 32//4 29//4
f 28//5 27//5 31//5
f 28//5 31//5 32//5
f 25//6 29//6 30//6
f 25//6 30//6 26//6
o pillar4
usemtl pillar
v -5.5 0 -5.2
v -4.3 0 -5.2
v -4.3 0 -4
v -5.5 0 -4
v -5.5 2.4 -5.2
v -4.3 2.4 -5.2
v -4.3 2.4 -4
v -5.5 2.4 -4
f 37//1 40//1 39//1
f 37//1 39//1 38//1
f 33//2 34//2 35//2
f 33//2 35//2 36//2
f 34//3 38//3 39//3
f 34//3 39//3 35//3
f 33//4 36//4 40//4
f 33//4 40//4 37//4
f 36//5 35//5 39//5
f 36//5 39//5 40//5
f 33//6 37//6 38//6
f 33//6 38//6 34//6
o step5
usemtl step
v 5 0 3
v 8 0 3
v 8 0 6
v 5 0 6
v 5 0.3 3
v 8 0.3 3
v 8 0.3 6
v 5 0.3 6
f 45//1 48//1 47//1
f 45//1 47//1 46//1
f 41//2 42//2 43//2
f 41//2 43//2 44//2
f 42//3 46//3 47//3
f 42//3 47//3 43//3
f 41//4 44//4 48//4
f 41//4 48//4 45//4
f 44//5 43//5 47//5
f 44//5 47//5 48//5
f 41//6 45//6 46//6
f 41//6 46//6 42//6
